<svg width="19" height="12" fill="none" xmlns="http://www.w3.org/2000/svg"><path d="M.41 12V.752h2.176V12H.41zm1.6-4.608V5.456h5.664v1.936H2.01zm0-4.72V.752h5.936v1.92H2.01zm9.25 4.624V5.6h2.608c.534 0 .944-.133 1.232-.4.3-.277.448-.656.448-1.136 0-.437-.149-.8-.448-1.088-.288-.299-.698-.448-1.232-.448H11.26V.752h2.8c.726 0 1.36.144 1.904.432.555.277.982.661 1.28 1.152.31.49.464 1.056.464 1.696 0 .661-.154 1.237-.464 1.728-.298.48-.725.859-1.28 1.136-.554.267-1.2.4-1.936.4H11.26zM9.66 12V.752h2.176V12H9.66zm6.144 0l-3.712-4.864 2-.624L18.444 12h-2.64z" fill="#000"/></svg>