<svg width="28" height="22" fill="none" xmlns="http://www.w3.org/2000/svg"><path d="M.7 3.032h9.968v2.016H3.416v2.366h6.412v1.722H3.416V13H.7V3.032zM22.264 13.28c-.56 0-1.022-.13-1.386-.392a3.89 3.89 0 01-.966-1.078l-.756-1.47a1.802 1.802 0 00-.7-.7 1.713 1.713 0 00-.896-.252h-3.234V13H11.61V3.032h7.938c1.25 0 2.226.27 2.926.812.71.541 1.064 1.293 1.064 2.254 0 .737-.256 1.358-.77 1.862-.513.495-1.227.812-2.142.952v.014c.392.177.714.49.966.938l.742 1.33c.178.308.416.462.714.462.14 0 .285-.042.434-.126.15-.093.27-.205.364-.336l.63 1.19c-.252.261-.583.476-.994.644a3.13 3.13 0 01-1.218.252zm-3.402-5.6c.598 0 1.069-.126 1.414-.378a1.24 1.24 0 00.532-1.05c0-.448-.177-.803-.532-1.064-.345-.261-.817-.392-1.414-.392h-4.536V7.68h4.536z" fill="#F4F1EA"/></svg>